<?xml version="1.0" standalone="no"?>
<!DOCTYPE svg PUBLIC "-//W3C//DTD SVG 20010904//EN"
 "http://www.w3.org/TR/2001/REC-SVG-20010904/DTD/svg10.dtd">
<svg version="1.0" xmlns="http://www.w3.org/2000/svg"
 width="600.000000pt" height="620.000000pt" viewBox="0 0 600.000000 620.000000"
 preserveAspectRatio="xMidYMid meet">

<g transform="translate(0.000000,620.000000) scale(0.100000,-0.100000)"
fill="#000000" stroke="none">
<path d="M0 3200 l0 -3000 3000 0 3000 0 0 3000 0 3000 -3000 0 -3000 0 0
-3000z m3089 1560 c98 -13 192 -40 184 -53 -3 -6 -1 -7 5 -3 13 8 67 -19 240
-118 183 -105 223 -131 215 -141 -5 -4 -2 -5 5 -1 7 5 46 -12 95 -40 207 -120
255 -149 297 -177 67 -46 171 -149 166 -164 -3 -7 0 -12 6 -10 11 2 81 -104
93 -143 4 -13 13 -38 21 -55 l13 -32 143 23 c165 27 181 28 176 12 -4 -12 -6
-12 -73 -23 -22 -3 -60 -10 -85 -15 -25 -5 -61 -11 -80 -14 -72 -11 -385 -63
-430 -72 -14 -3 -77 -13 -140 -24 -63 -10 -155 -26 -205 -35 -49 -9 -184 -31
-300 -50 -115 -19 -221 -37 -235 -39 -36 -7 -325 -56 -390 -66 -99 -15 -1003
-169 -1073 -183 -6 -1 -13 6 -15 16 -3 13 3 17 25 18 15 1 31 1 36 0 6 -1 11
13 9 30 -1 3 3 78 8 165 7 137 12 168 35 226 34 84 95 167 161 216 45 34 276
171 684 405 134 77 200 97 321 97 114 0 195 -25 329 -102 58 -34 179 -103 270
-156 91 -52 181 -104 200 -115 208 -118 289 -187 341 -293 30 -61 33 -64 63
-60 17 3 63 10 101 16 102 16 102 16 67 92 -76 169 -170 262 -398 397 -87 52
-161 97 -164 101 -3 4 -16 11 -30 15 -36 11 -71 36 -64 46 3 5 -1 6 -9 3 -7
-2 -42 13 -78 35 -35 22 -82 50 -104 62 -22 11 -87 47 -145 79 -146 82 -233
105 -385 104 -79 0 -137 -6 -170 -16 -83 -26 -157 -58 -205 -87 -25 -16 -173
-101 -330 -191 -413 -236 -426 -245 -517 -338 -46 -47 -83 -88 -83 -92 0 -5
-15 -34 -33 -67 -67 -121 -87 -221 -87 -439 0 -177 -1 -175 54 -154 22 8 26 7
26 -9 0 -22 -53 -35 -130 -33 -25 1 -70 -7 -100 -17 -30 -11 -62 -19 -70 -19
-8 0 -35 -3 -59 -7 -35 -6 -43 -5 -39 6 2 7 24 17 49 21 24 5 74 15 110 23 37
8 81 15 98 15 l31 0 0 163 c0 227 17 312 94 465 38 76 62 108 134 180 49 48
108 97 133 110 24 13 69 38 99 57 30 19 61 32 68 30 8 -3 10 0 6 7 -5 8 -2 9
10 5 9 -4 15 -3 11 2 -7 12 84 63 99 54 6 -3 8 -2 3 2 -7 8 72 65 90 65 3 0
14 6 22 14 9 7 45 29 81 48 36 20 105 59 153 87 49 28 94 48 99 45 6 -4 8 -2
5 3 -14 23 148 80 253 90 36 3 67 7 69 9 7 6 39 4 120 -6z m1226 -1225 c35
-34 36 -110 3 -119 -41 -11 -48 -7 -48 24 0 34 -22 49 -45 30 -12 -10 -15 -37
-15 -124 0 -61 5 -118 10 -126 16 -25 44 1 50 46 5 35 8 39 38 42 l32 3 0 -51
c0 -43 -5 -55 -32 -85 -45 -49 -93 -56 -135 -21 l-31 26 -1 135 c0 95 3 146
13 169 30 73 113 100 161 51z m-297 -195 c2 -96 0 -190 -3 -207 -5 -30 -9 -33
-39 -33 l-34 0 3 148 c4 271 3 260 23 265 47 13 47 12 50 -173z m-203 109 c0
-26 -5 -35 -20 -37 -11 -2 -23 -7 -27 -11 -4 -4 -10 -80 -13 -170 -2 -90 -6
-166 -8 -168 -3 -2 -17 -5 -33 -6 l-29 -2 -1 155 c-1 85 -2 161 -3 168 0 6
-14 12 -31 12 -27 0 -30 3 -30 29 0 17 5 33 11 36 13 8 160 34 174 31 6 -2 10
-18 10 -37z m-320 -217 c0 -106 -2 -198 -6 -203 -3 -6 -21 -11 -39 -12 -33 -2
-34 0 -53 58 -10 33 -25 74 -32 90 l-14 30 -1 -40 c-1 -22 -1 -59 0 -82 1 -23
-4 -51 -10 -62 -13 -26 -57 -28 -62 -3 -9 40 5 387 16 394 6 4 23 8 37 8 23 0
29 -7 42 -47 9 -27 19 -65 22 -86 8 -40 24 -59 26 -30 1 10 1 48 -1 86 -2 76
9 100 49 95 l26 -3 0 -193z m-345 114 c0 -34 -1 -35 -52 -43 l-53 -8 -3 -48
-3 -47 40 0 c40 0 41 -1 41 -34 0 -31 -2 -34 -41 -40 l-40 -6 3 -48 c3 -51 0
-49 73 -40 28 3 30 1 30 -32 0 -34 -1 -35 -55 -47 -30 -6 -70 -12 -88 -12
l-32 -1 2 208 3 207 65 11 c108 19 110 19 110 -20z m-303 -216 c-2 -126 -7
-204 -14 -211 -6 -6 -21 -9 -34 -7 -23 3 -24 6 -21 62 5 84 -3 109 -31 100
-31 -9 -30 -7 -28 -79 3 -79 -10 -107 -47 -103 l-27 3 -2 155 c-2 85 1 178 5
205 7 47 9 50 37 50 l30 0 0 -77 c0 -42 3 -79 6 -82 3 -4 18 -2 33 4 27 10 27
12 25 84 -1 40 1 78 5 85 4 6 20 11 36 11 l30 0 -3 -200z m-327 116 c0 -30 -4
-35 -30 -41 l-30 -7 -2 -86 c-2 -48 -2 -112 0 -142 1 -30 0 -70 -3 -87 -5 -30
-9 -33 -40 -33 l-35 0 3 168 2 167 -27 -2 c-22 -1 -29 3 -34 23 -9 36 7 48 89
60 112 18 107 18 107 -20z m-325 -181 c0 -97 -4 -172 -11 -191 -27 -72 -122
-100 -163 -48 -19 25 -21 40 -21 199 l0 173 27 5 c16 3 31 3 35 0 5 -2 8 -76
8 -163 0 -163 6 -188 38 -157 12 13 16 48 20 174 4 163 8 176 47 171 19 -3 20
-11 20 -163z m-353 -65 c15 -91 27 -181 27 -201 1 -32 -2 -37 -26 -42 -37 -7
-39 -4 -47 43 -5 31 -11 40 -26 40 -22 0 -40 -28 -40 -64 0 -15 -8 -30 -19
-36 -23 -12 -61 -13 -61 -2 0 9 35 212 55 322 8 47 15 88 15 92 0 8 37 16 70
14 24 -1 26 -5 52 -166z m2906 48 c-3 -7 -33 -19 -68 -27 -53 -11 -64 -11 -71
0 -10 17 -10 17 66 28 33 5 64 9 68 10 5 0 7 -5 5 -11z m-224 -24 c30 -12 17
-33 -21 -36 l-38 -3 -6 -150 c-8 -200 -25 -272 -96 -407 -41 -78 -148 -202
-166 -191 -5 3 -7 1 -3 -5 3 -6 -8 -22 -26 -35 -29 -22 -216 -137 -223 -137
-1 0 -80 -45 -174 -100 -95 -55 -174 -100 -177 -100 -3 0 -17 -8 -32 -18 -122
-84 -291 -166 -379 -186 -132 -29 -392 -14 -440 26 -7 6 -13 7 -13 4 0 -7
-144 67 -221 114 -25 15 -70 41 -100 58 -30 17 -53 36 -51 42 1 6 -2 9 -8 5
-5 -3 -35 8 -67 26 -81 44 -282 162 -381 223 -90 55 -188 148 -176 167 4 7 3
9 -3 6 -14 -9 -32 13 -84 101 -38 65 -45 72 -68 68 -14 -3 -46 -8 -71 -12 -25
-3 -53 -8 -63 -10 -76 -14 -179 -25 -184 -20 -15 15 -13 16 382 82 83 14 164
28 180 30 17 3 66 12 110 19 44 8 94 17 110 19 17 3 122 21 235 40 451 77 990
168 1070 181 233 37 658 110 739 126 29 6 73 8 97 4 33 -5 55 -1 91 15 66 30
103 34 103 12 0 -14 -15 -20 -77 -30 -42 -6 -78 -13 -79 -15 -2 -2 -4 -43 -5
-93 -1 -90 -29 -226 -48 -232 -5 -2 -8 -9 -5 -15 5 -14 -52 -104 -98 -154 -43
-45 -85 -74 -243 -165 -71 -41 -175 -101 -230 -133 -151 -88 -176 -102 -227
-129 -25 -14 -62 -36 -81 -49 -19 -13 -66 -34 -103 -47 -91 -32 -251 -34 -334
-6 -82 28 -132 55 -124 68 4 6 3 8 -3 5 -9 -5 -59 18 -133 63 -91 54 -249 145
-305 175 -38 21 -77 43 -85 50 -8 7 -19 14 -25 16 -36 14 -124 73 -119 80 3 5
-2 6 -10 3 -16 -6 -114 85 -154 143 -20 28 -25 31 -55 23 -17 -4 -67 -14 -110
-20 -42 -7 -77 -18 -77 -24 0 -6 14 -35 30 -65 16 -29 27 -58 23 -64 -3 -5 -2
-7 3 -4 6 3 36 -23 68 -59 32 -35 85 -83 119 -105 60 -40 292 -177 350 -206
15 -8 24 -19 21 -25 -4 -7 -2 -8 5 -4 6 4 56 -18 114 -52 56 -33 118 -69 137
-80 19 -10 64 -36 99 -57 196 -115 406 -144 606 -81 45 14 134 57 203 96 68
39 128 68 134 64 6 -4 8 -3 5 3 -8 12 151 105 165 97 6 -4 8 -3 5 2 -8 13 90
67 105 58 6 -4 8 -3 4 4 -4 6 52 44 140 94 331 188 450 380 455 733 2 130 10
181 27 172 6 -4 18 -1 49 12 1 1 8 -2 17 -5z"/>
<path d="M2935 4480 c-110 -16 -96 -10 -560 -277 -99 -57 -187 -108 -195 -113
-8 -5 -42 -24 -75 -42 -97 -54 -179 -138 -225 -232 -22 -44 -45 -108 -50 -141
-16 -99 -19 -95 55 -95 49 0 65 -3 65 -14 0 -11 -15 -14 -62 -14 l-63 1 -3
-78 c-2 -43 1 -81 5 -85 4 -4 44 -1 88 6 44 8 253 44 465 80 212 35 390 66
395 68 6 3 -86 5 -202 6 -245 3 -232 2 -235 15 -2 6 125 12 357 16 348 5 366
6 535 37 96 17 245 43 330 57 85 14 178 29 205 34 57 11 196 35 303 51 39 7
72 17 72 23 0 5 -11 30 -26 54 -14 24 -22 48 -19 53 4 6 2 9 -3 8 -5 -2 -32
20 -61 49 -40 41 -207 153 -227 153 -3 0 -28 16 -57 35 -28 19 -55 35 -59 35
-13 0 -94 55 -97 65 -1 6 -5 12 -8 15 -4 3 -3 -1 1 -7 11 -20 -1 -16 -67 23
-34 20 -82 48 -107 62 -25 13 -52 30 -60 36 -46 36 -184 96 -252 110 -83 17
-87 17 -163 6z m-333 -330 c25 -34 43 -39 35 -10 -8 30 8 24 37 -15 15 -19 32
-35 39 -35 8 0 8 3 -1 12 -16 16 -15 28 3 28 8 0 21 -13 29 -28 12 -23 34 -35
135 -70 l121 -43 118 41 c90 31 123 47 142 70 31 37 42 38 34 3 l-7 -28 19 22
c11 12 27 31 36 42 23 28 43 28 28 1 -17 -31 6 -24 30 10 21 30 46 41 37 18
-2 -7 -9 -12 -14 -11 -6 1 -8 -9 -5 -22 3 -17 13 -26 33 -30 48 -11 23 -24
-34 -19 -51 5 -51 5 -27 -11 24 -15 23 -15 -32 -10 -38 4 -58 2 -58 -5 0 -5
10 -10 23 -10 17 0 19 -2 7 -10 -8 -5 -33 -6 -55 -3 -32 4 -63 -3 -133 -28
-83 -30 -108 -49 -63 -49 9 0 21 -4 27 -9 5 -4 32 -14 59 -21 28 -8 68 -22 90
-32 22 -9 51 -18 64 -18 20 0 21 2 11 15 -22 27 5 16 33 -13 15 -16 24 -32 20
-37 -5 -4 -3 -5 3 -2 6 4 20 0 30 -8 17 -13 12 -14 -51 -15 -47 0 -65 3 -55
10 8 5 12 11 10 13 -3 3 -48 19 -100 37 -52 18 -108 38 -125 45 -82 35 -87 35
-191 -2 -55 -19 -127 -43 -161 -54 -61 -19 -76 -32 -50 -42 6 -3 -19 -6 -58
-6 l-70 0 40 35 c53 46 77 60 69 39 -4 -8 -14 -15 -23 -16 -10 0 -11 -2 -4 -6
12 -4 279 83 296 97 4 4 -35 21 -88 40 -73 25 -105 31 -135 26 -22 -3 -41 -2
-45 4 -3 5 1 10 9 10 9 0 16 5 16 10 0 12 -26 13 -48 1 -9 -5 -26 -5 -37 0
-18 7 -18 8 -2 8 11 1 17 7 14 14 -4 12 -11 12 -69 0 -17 -3 -28 -1 -28 5 0 6
15 14 34 17 l34 7 -20 34 c-25 42 -7 45 24 4z m-550 -527 c4 -39 28 -42 28 -4
0 21 5 31 15 31 12 0 15 -15 15 -75 0 -60 -3 -75 -15 -75 -10 0 -15 10 -15 30
0 17 -4 30 -9 30 -5 0 -11 -13 -14 -30 -4 -18 -13 -30 -22 -30 -12 0 -15 14
-15 75 0 58 3 75 14 75 8 0 16 -12 18 -27z m175 15 c16 -20 13 -115 -3 -129
-8 -6 -14 -18 -14 -25 0 -8 -7 -14 -15 -14 -8 0 -15 6 -15 14 0 8 -7 16 -15
20 -11 4 -15 22 -15 69 0 35 3 67 7 70 11 12 60 8 70 -5z"/>
<path d="M2180 3574 c0 -28 4 -44 11 -42 6 2 10 7 10 11 -1 4 -1 23 -1 42 0
19 -4 35 -10 35 -5 0 -10 -21 -10 -46z"/>
<path d="M1761 2970 c-1 -8 -4 -25 -7 -37 -5 -17 -2 -23 10 -23 17 0 19 11 6
50 -4 14 -9 18 -9 10z"/>
<path d="M4099 2926 c-2 -2 -197 -36 -434 -76 -236 -40 -433 -75 -437 -79 -4
-3 81 -6 189 -6 148 0 197 -3 201 -12 3 -10 -63 -13 -306 -13 -170 0 -334 -5
-363 -10 -30 -6 -65 -12 -79 -15 -14 -2 -69 -11 -123 -20 -54 -9 -111 -14
-125 -11 -18 4 -22 3 -13 -2 9 -7 -6 -12 -45 -16 -33 -4 -77 -11 -99 -16 -22
-5 -92 -18 -155 -29 -177 -30 -265 -45 -270 -46 -3 -1 -30 -5 -60 -9 -85 -13
-87 -16 -42 -73 54 -67 98 -97 377 -257 132 -76 278 -161 325 -189 183 -110
262 -134 403 -124 93 6 153 30 302 117 259 151 315 181 326 175 5 -4 8 -1 7 5
-3 10 116 84 247 154 21 11 71 53 110 92 56 56 76 85 97 140 38 94 47 145 48
242 l0 82 -38 0 c-21 0 -41 -2 -43 -4z m-371 -164 c2 -60 0 -72 -13 -72 -12 0
-15 12 -15 54 0 30 -5 58 -10 61 -8 5 -7 11 1 21 23 28 34 8 37 -64z m110 69
c9 -5 12 -27 10 -71 -3 -59 -5 -65 -28 -70 -28 -8 -50 5 -50 27 0 11 7 13 25
9 18 -5 25 -2 25 8 0 8 -10 16 -22 18 -17 2 -24 11 -26 31 -2 16 -1 35 2 43 6
15 43 19 64 5z m131 -5 c7 -9 11 -38 9 -73 l-3 -58 -40 0 c-31 0 -41 4 -43 18
-3 16 0 18 28 12 25 -5 31 -4 28 6 -2 7 -15 16 -29 19 -27 7 -39 51 -18 76 15
18 53 18 68 0z m125 -34 c0 -23 4 -42 8 -42 4 0 8 -7 8 -15 0 -8 -5 -15 -11
-15 -6 0 -9 -7 -5 -15 4 -10 -1 -15 -14 -15 -11 0 -20 7 -20 15 0 8 -9 15 -19
15 -31 0 -32 14 -4 69 33 64 57 65 57 3z m-1441 -344 c3 -13 9 -47 13 -75 6
-45 4 -53 -10 -53 -9 0 -16 5 -16 10 0 6 -8 5 -20 -2 -34 -21 -34 -10 -5 120
3 12 12 22 19 22 8 0 16 -10 19 -22z m142 -23 c0 -34 -3 -40 -22 -43 -17 -2
-23 -10 -23 -27 0 -24 -16 -42 -28 -31 -7 8 -12 128 -5 139 3 4 21 7 41 5 36
-3 37 -4 37 -43z m120 0 c0 -34 -3 -40 -22 -43 -18 -3 -23 -10 -23 -33 0 -19
-5 -29 -15 -29 -12 0 -15 15 -15 76 l0 75 38 -3 c36 -3 37 -4 37 -43z m104
-12 c15 -75 14 -93 -4 -93 -8 0 -15 5 -15 10 0 6 -8 5 -20 -2 -10 -7 -22 -10
-25 -7 -3 4 0 38 7 78 9 55 16 71 29 71 12 0 19 -15 28 -57z m139 24 c2 -16
-2 -34 -8 -42 -9 -10 -7 -21 5 -45 16 -30 15 -32 -2 -28 -9 2 -23 13 -29 26
-16 31 -21 36 -21 15 0 -36 -3 -43 -18 -43 -12 0 -15 15 -15 76 l0 75 43 -3
c38 -3 42 -6 45 -31z m132 18 c0 -9 -9 -15 -24 -15 -13 0 -26 -7 -30 -15 -3
-9 0 -15 9 -15 8 0 15 -7 15 -15 0 -8 -4 -15 -10 -15 -5 0 -10 -7 -10 -15 0
-9 9 -15 25 -15 16 0 25 -6 25 -16 0 -12 -9 -14 -42 -12 l-43 3 -2 73 -2 72
45 0 c32 0 44 -4 44 -15z m70 -45 c0 -57 1 -60 25 -60 16 0 25 -6 25 -15 0
-11 -11 -15 -40 -15 l-40 0 0 75 c0 60 3 75 15 75 12 0 15 -13 15 -60z"/>
<path d="M3800 2795 c0 -8 5 -15 10 -15 6 0 10 7 10 15 0 8 -4 15 -10 15 -5 0
-10 -7 -10 -15z"/>
<path d="M3927 2803 c-12 -11 -8 -23 8 -23 8 0 15 7 15 15 0 16 -12 20 -23 8z"/>
<path d="M2750 2425 c0 -8 5 -15 10 -15 6 0 10 7 10 15 0 8 -4 15 -10 15 -5 0
-10 -7 -10 -15z"/>
<path d="M2870 2425 c0 -8 5 -15 10 -15 6 0 10 7 10 15 0 8 -4 15 -10 15 -5 0
-10 -7 -10 -15z"/>
<path d="M3103 2425 c0 -8 6 -15 14 -15 7 0 13 7 13 15 0 8 -6 15 -13 15 -8 0
-14 -7 -14 -15z"/>
<path d="M2270 110 c0 -29 3 -51 6 -48 7 8 8 88 0 95 -3 4 -6 -18 -6 -47z"/>
<path d="M2932 110 c0 -30 2 -47 5 -38 4 17 6 17 31 1 l27 -17 -20 23 c-19 22
-19 23 0 37 10 8 14 14 8 14 -6 0 -17 -7 -24 -17 -13 -15 -15 -13 -20 18 -5
27 -6 23 -7 -21z"/>
<path d="M2431 113 c1 -22 3 -30 6 -18 3 11 9 22 13 25 4 3 2 11 -6 18 -12 11
-14 7 -13 -25z"/>
<path d="M2482 110 c2 -34 7 -45 21 -46 12 -1 13 -1 2 3 -22 7 -20 53 3 54 13
0 14 2 2 6 -8 3 -18 11 -23 17 -4 6 -6 -9 -5 -34z"/>
<path d="M2732 109 c2 -33 7 -44 21 -45 12 -1 13 -1 2 3 -16 5 -21 49 -6 55 5
2 2 9 -6 16 -12 12 -14 8 -11 -29z"/>
<path d="M3468 143 c6 -2 18 -2 25 0 6 3 1 5 -13 5 -14 0 -19 -2 -12 -5z"/>
<path d="M3542 138 c-28 -28 -3 -85 32 -72 13 5 16 16 14 43 -3 38 -24 51 -46
29z m33 -34 c0 -19 -5 -29 -15 -29 -16 0 -25 28 -16 51 10 25 31 10 31 -22z"/>
<path d="M3648 120 c3 -23 0 -30 -12 -30 -14 0 -15 4 -6 23 11 21 10 21 -4 3
-21 -26 -20 -36 4 -36 11 0 20 -6 20 -12 0 -10 2 -10 8 -1 9 15 3 83 -7 83 -4
0 -6 -13 -3 -30z"/>
<path d="M3712 143 c26 -4 26 -4 12 -40 -8 -19 -13 -37 -11 -40 3 -2 9 9 15
24 5 15 13 36 17 46 6 14 2 17 -26 16 -30 -2 -30 -3 -7 -6z"/>
<path d="M3798 139 c25 -9 23 -18 -11 -56 l-20 -23 34 1 c25 1 28 3 11 6 l-24
5 22 24 c19 19 21 26 10 39 -7 8 -20 15 -29 14 -10 0 -8 -3 7 -10z"/>
<path d="M3863 143 c-7 -2 -13 -13 -13 -23 0 -19 25 -34 41 -24 5 3 9 0 9 -6
0 -6 -10 -15 -22 -20 -14 -5 -17 -9 -7 -9 8 -1 20 4 27 11 17 17 15 65 -4 72
-9 3 -16 6 -17 5 -1 0 -8 -3 -14 -6z m33 -14 c10 -17 -13 -36 -27 -22 -12 12
-4 33 11 33 5 0 12 -5 16 -11z"/>
<path d="M3952 143 c26 -4 26 -4 12 -40 -8 -19 -13 -37 -11 -40 3 -2 9 9 15
24 5 15 13 36 17 46 6 14 2 17 -26 16 -30 -2 -30 -3 -7 -6z"/>
<path d="M4022 138 c-28 -28 -1 -88 34 -74 25 10 14 51 -14 50 -29 -1 -23 18
9 27 21 6 21 7 4 8 -12 1 -26 -4 -33 -11z m38 -48 c0 -11 -6 -20 -14 -20 -18
0 -29 16 -21 30 11 18 35 11 35 -10z"/>
<path d="M4102 138 c-28 -28 -2 -88 33 -74 22 8 19 47 -5 53 -25 7 -26 20 -2
26 13 4 13 5 2 6 -9 0 -21 -4 -28 -11z m38 -50 c0 -27 -35 -19 -36 8 -1 16 3
20 17 17 11 -3 19 -14 19 -25z"/>
<path d="M1841 114 c0 -11 3 -14 6 -6 3 7 2 16 -1 19 -3 4 -6 -2 -5 -13z"/>
<path d="M1877 123 c-4 -3 -7 -13 -7 -22 1 -13 3 -13 11 2 11 19 8 33 -4 20z"/>
<path d="M1950 123 c0 -18 20 -66 25 -61 3 3 -1 20 -9 39 -9 19 -15 29 -16 22z"/>
<path d="M1987 124 c-4 -4 -7 -14 -7 -23 0 -13 2 -13 9 -3 6 10 10 7 15 -12 8
-31 27 -25 25 7 -1 20 -2 20 -6 2 -5 -17 -7 -16 -17 9 -6 15 -14 24 -19 20z"/>
<path d="M2066 100 c7 -38 11 -46 19 -38 3 3 -2 20 -10 39 l-16 34 7 -35z"/>
<path d="M2097 123 c-4 -3 -7 -13 -7 -22 1 -13 3 -13 11 2 11 19 8 33 -4 20z"/>
<path d="M2134 105 c-5 -20 -9 -23 -15 -13 -5 7 -9 9 -9 3 0 -5 4 -16 9 -23 6
-10 11 -5 20 19 6 18 9 34 7 37 -3 2 -8 -8 -12 -23z"/>
<path d="M2205 120 c-8 -14 3 -30 21 -30 20 0 18 -18 -3 -23 -15 -3 -14 -4 1
-3 27 1 32 26 7 33 -26 7 -27 20 -3 26 15 4 15 5 0 6 -9 0 -20 -3 -23 -9z"/>
<path d="M2307 123 c6 -4 13 -22 16 -38 4 -27 5 -27 3 4 0 21 -7 36 -16 38
-10 3 -11 2 -3 -4z"/>
<path d="M2352 105 c0 -16 2 -22 5 -12 2 9 2 23 0 30 -3 6 -5 -1 -5 -18z"/>
<path d="M2403 95 c0 -22 2 -30 4 -17 2 12 2 30 0 40 -3 9 -5 -1 -4 -23z"/>
<path d="M2542 118 c-21 -21 -14 -35 18 -30 20 3 30 10 29 21 0 10 -2 11 -6 4
-2 -7 -14 -13 -26 -13 -22 1 -22 1 -3 15 11 8 15 15 10 15 -6 0 -15 -5 -22
-12z"/>
<path d="M2611 90 c1 -27 3 -29 6 -10 2 14 11 30 20 37 13 10 13 12 -6 10 -17
-1 -21 -7 -20 -37z"/>
<path d="M2665 120 c-8 -14 3 -30 21 -30 20 0 18 -18 -3 -23 -15 -3 -14 -4 1
-3 27 1 32 26 7 33 -26 7 -27 20 -3 26 15 4 15 5 0 6 -9 0 -20 -3 -23 -9z"/>
<path d="M2815 116 c12 -8 16 -19 12 -30 -9 -24 -30 -15 -38 15 l-7 24 -1 -26
c-1 -28 18 -42 44 -33 20 8 19 50 -1 58 -25 10 -29 7 -9 -8z"/>
<path d="M2873 123 c-7 -2 -13 -15 -13 -28 0 -22 18 -36 43 -34 7 0 2 4 -10 9
-13 5 -23 16 -23 25 0 9 10 20 23 25 12 5 15 9 7 9 -8 -1 -21 -3 -27 -6z"/>
<path d="M3063 123 c-29 -11 -6 -64 27 -62 9 0 6 4 -7 9 -27 11 -30 35 -5 49
17 11 7 13 -15 4z"/>
<path d="M3133 123 c-15 -5 -17 -32 -4 -52 13 -21 51 -4 51 24 0 18 -21 40
-33 34 -1 0 -8 -3 -14 -6z m34 -19 c8 -21 -13 -42 -28 -27 -13 13 -5 43 11 43
6 0 13 -7 17 -16z"/>
<path d="M3200 96 c0 -20 2 -36 4 -36 8 0 12 61 4 66 -4 3 -8 -11 -8 -30z"/>
<path d="M3237 123 c6 -4 13 -22 16 -38 4 -27 5 -27 3 4 0 21 -7 36 -16 38
-10 3 -11 2 -3 -4z"/>
<path d="M3282 116 c7 -8 15 -12 17 -11 5 6 -10 25 -20 25 -5 0 -4 -6 3 -14z"/>
<path d="M3478 109 c29 -11 24 -31 -9 -40 -14 -4 -17 -7 -7 -8 28 -2 48 10 48
29 0 17 -20 31 -43 29 -7 0 -1 -4 11 -10z"/>
<path d="M1910 94 c0 -16 -2 -17 -10 -4 -5 8 -10 11 -10 5 0 -5 4 -16 9 -24 7
-11 10 -9 16 8 4 13 4 25 1 28 -3 4 -6 -2 -6 -13z"/>
<path d="M1850 76 c0 -9 5 -16 10 -16 6 0 10 4 10 9 0 6 -4 13 -10 16 -5 3
-10 -1 -10 -9z"/>
<path d="M2368 63 c7 -3 16 -2 19 1 4 3 -2 6 -13 5 -11 0 -14 -3 -6 -6z"/>
<path d="M2448 63 c7 -3 16 -2 19 1 4 3 -2 6 -13 5 -11 0 -14 -3 -6 -6z"/>
<path d="M2558 63 c7 -3 16 -2 19 1 4 3 -2 6 -13 5 -11 0 -14 -3 -6 -6z"/>
</g>
</svg>
